<svg xmlns="http://www.w3.org/2000/svg" width="504" height="504" viewBox="10 13 504 640"><path fill="black" stroke="black" d="M 391 252 C 404 230 411 211 413 194 C 417 174 416 154 411 136 C 406 116 397 100 388 87 C 381 78 363 63 341 50 C 334 46 318 40 304 34 C 291 29 279 25 264 26 C 256 26 247 28 241 29 C 234 30 225 30 216 32 C 208 34 199 37 190 41 C 180 45 172 50 163 55 C 150 62 139 66 129 75 C 120 83 113 92 107 102 C 104 109 100 120 98 131 C 96 142 94 153 94 163 C 94 180 95 197 100 214 C 102 222 105 229 108 235 C 110 240 115 241 115 241 C 115 241 116 243 113 234 C 109 223 108 212 110 203 C 112 197 115 189 122 181 C 130 171 140 165 150 161 C 157 159 169 158 184 161 C 195 164 203 169 207 172 C 209 174 212 177 214 180 C 216 183 219 187 222 193 C 221 191 278 195 278 194 C 279 191 284 183 291 177 C 299 169 308 165 314 163 C 321 160 330 159 341 160 C 356 162 366 168 373 173 C 381 180 386 188 389 196 C 391 202 392 214 389 229 C 385 243 391 254 391 254 L 396 242 L 400 236 C 400 236 379 273 391 252 z"/><path fill="black" stroke="black" d="M 265 14 C 245 13 277 14 265 14 zM 10 628 C 18 627 10 628 10 628 zM 221 190 C 219 187 216 183 214 180 C 212 177 209 174 207 172 C 203 169 195 164 184 161 C 169 158 157 159 150 161 C 140 165 130 171 122 181 C 115 189 112 197 110 203 C 108 212 109 223 113 234 C 116 243 122 252 129 258 C 141 268 157 272 170 271 C 181 270 199 266 211 252 C 214 249 216 245 219 241 C 221 236 223 230 224 223 C 226 212 225 202 222 191 C 222 191 221 190 221 190 z"/><path fill="black" stroke="black" d="M 265 14 C 245 13 277 14 265 14 zM 10 628 C 18 627 10 628 10 628 zM 310 265 C 313 267 315 268 318 269 C 323 271 330 272 340 271 C 356 269 366 263 372 257 C 377 252 385 243 389 229 C 392 214 391 202 389 196 C 386 188 381 180 373 173 C 366 168 356 162 341 160 C 330 159 321 160 314 163 C 308 165 299 169 291 177 C 284 183 279 191 278 194 C 278 195 277 196 277 197 C 276 199 276 201 276 203 C 276 208 276 213 276 217 C 277 221 277 225 278 229 C 281 238 285 245 289 249 C 294 257 302 262 311 266 C 311 266 310 265 310 265 z"/><path fill="black" stroke="black" d="M 130 382 C 136 399 124 365 130 382 zM 223 267 C 223 271 222 274 222 278 C 222 284 222 291 221 297 C 220 306 219 316 217 320 C 215 326 212 330 211 338 C 210 343 210 350 212 355 C 215 364 220 370 226 372 C 230 373 234 371 237 370 C 241 369 251 368 261 369 C 272 371 280 375 288 371 C 291 369 295 365 298 358 C 299 353 300 348 299 343 C 298 335 294 331 290 324 C 286 318 284 311 282 307 C 280 299 281 291 281 286 C 281 274 278 266 278 254 C 278 245 277 236 278 228 C 279 211 281 195 273 191 C 272 190 270 190 267 190 C 264 190 260 189 257 189 C 254 189 248 188 245 188 C 241 188 238 188 234 188 C 231 188 228 187 227 188 C 221 191 226 217 225 224 C 224 232 222 237 222 245 C 222 252 222 258 222 264 C 222 264 223 267 223 267 zM 294 325 L 294 325 z"/><path fill="black" stroke="black" d="M 222 264 C 222 258 222 252 222 245 C 222 237 221 236 219 241 C 216 245 214 249 211 252 C 199 266 181 270 170 271 C 157 272 141 268 129 258 C 105 238 122 255 130 268 C 134 273 136 278 139 284 C 142 290 146 293 149 299 C 152 304 154 313 159 319 C 165 327 171 331 171 331 C 176 331 180 330 185 329 C 190 328 197 326 200 325 C 205 324 210 323 215 322 C 215 322 215 326 217 320 C 219 316 220 306 221 297 C 222 291 222 284 222 278 C 222 274 223 271 223 267 C 223 267 222 264 222 264 zM 129 382 L 129 382 zM 130 382 C 136 399 124 365 130 382 zM 237 298 L 237 298 z"/><path fill="black" stroke="black" d="M 279 228 C 282 237 286 244 290 248 C 295 256 303 261 312 265 C 312 265 308 264 308 264 C 309 264 315 266 319 268 C 324 270 331 271 341 270 C 357 268 367 262 373 256 C 378 251 386 242 390 228 C 393 213 392 243 392 243 C 398 255 377 281 339 333 C 339 333 338 333 338 333 C 333 333 327 332 322 331 C 287 327 288 321 282 307 C 279 299 281 291 281 286 C 281 274 278 266 278 254 C 278 245 277 236 278 228 C 279 211 278 224 279 228 zM 406 275 L 406 275 z"/><path fill="black" stroke="black" d="M 214 17 C 203 20 184 27 167 35 C 148 45 129 57 123 63 C 113 73 100 91 90 115 C 84 131 81 145 80 157 C 80 164 80 171 81 177 C 82 189 87 203 88 207 C 94 223 95 235 101 250 C 106 264 110 273 111 289 C 111 298 110 306 111 315 C 112 322 113 331 116 340 C 119 349 122 357 125 366 C 126 369 127 372 128 375 C 128 377 129 380 130 382 C 130 383 130 384 131 384 C 132 387 133 391 134 394 C 135 397 141 402 141 402 C 148 384 164 339 168 333 C 168 333 169 331 169 330 C 169 326 164 324 159 319 C 153 313 152 304 149 299 C 146 293 142 290 139 284 C 136 278 134 273 130 268 C 126 261 121 256 116 250 C 113 245 110 240 108 235 C 105 229 102 222 100 214 C 95 197 94 180 94 163 C 94 153 96 142 98 131 C 100 120 104 109 107 102 C 113 92 120 83 129 75 C 139 66 150 62 163 55 C 172 50 180 45 190 41 C 199 37 208 34 216 32 C 225 30 234 30 241 29 C 247 28 257 27 257 27 L 259 25 L 258 13 L 237 13 C 237 13 227 14 214 17 z"/><path fill="black" stroke="black" d="M 374 425 C 366 402 352 365 348 354 C 346 350 345 346 343 345 C 340 341 337 339 337 336 C 337 335 338 334 338 334 C 356 307 379 273 391 252 C 404 230 411 211 413 194 C 417 174 416 154 411 136 C 406 116 397 100 388 87 C 381 78 363 63 341 50 C 334 46 318 40 304 34 C 291 29 279 25 264 26 C 256 26 259 25 259 25 L 258 13 C 258 13 245 13 265 14 C 277 14 292 16 308 19 C 326 23 343 28 353 33 C 362 37 371 43 381 51 C 404 69 420 89 430 110 C 436 124 440 136 442 146 C 443 156 444 168 443 182 C 442 194 439 205 436 219 C 431 235 425 248 420 264 C 416 280 413 298 413 306 C 413 316 414 323 412 334 C 410 344 406 351 402 361 C 399 370 396 380 392 390 C 391 391 391 393 390 394 C 387 401 384 407 381 412 C 380 414 379 416 378 418 C 376 421 375 424 373 427 C 292 577 374 425 374 425 z"/><path fill="black" stroke="black" d="M 265 14 C 245 13 227 14 214 17 C 214 17 265 14 265 14 z"/><path fill="black" stroke="black" d="M 318 387 C 313 385 311 382 308 379 C 289 362 233 368 199 381 C 197 382 194 383 194 383 C 194 383 206 379 206 379 C 206 379 197 383 192 388 C 191 389 189 391 188 393 C 187 395 186 398 186 400 C 186 403 187 407 189 410 C 190 412 192 414 196 416 C 199 418 202 418 204 419 C 208 421 210 424 214 426 C 223 433 233 431 244 430 C 259 430 270 434 287 431 C 296 429 307 426 316 417 C 321 412 324 406 326 399 C 327 395 326 393 325 391 C 323 388 321 388 318 387 z"/><path fill="black" stroke="black" d="M 338 333 C 333 333 327 332 322 331 C 316 330 310 328 304 326 C 304 326 295 324 295 324 C 295 324 286 318 290 324 C 294 331 298 335 299 343 C 300 348 299 353 298 358 C 292 374 269 374 269 374 L 278 376 L 286 376 L 299 376 L 305 377 C 305 377 306 377 308 379 C 310 382 313 385 318 387 C 321 388 323 388 325 391 C 326 393 327 395 326 399 C 324 406 321 412 316 417 C 307 426 296 429 287 431 C 270 434 291 436 282 433 C 288 435 294 439 301 447 C 307 455 315 465 313 481 C 308 517 302 523 309 517 C 311 515 314 513 317 510 C 322 505 329 496 336 488 C 340 482 344 475 348 468 C 349 467 350 465 351 464 C 354 458 358 453 361 448 C 365 441 370 432 373 427 C 375 424 374 425 374 425 C 366 402 352 365 348 354 C 346 350 345 346 343 345 C 340 341 337 339 337 336 C 337 335 338 334 338 334 C 356 307 338 333 338 333 zM 291 508 L 291 508 z"/><path fill="black" stroke="black" d="M 217 320 C 215 326 212 330 211 338 C 210 343 210 350 212 355 C 215 364 220 370 226 372 C 230 373 234 371 237 370 C 241 369 271 367 261 369 C 250 372 251 372 244 373 C 237 374 230 375 230 375 L 221 376 L 214 377 L 205 379 C 205 379 233 368 199 381 C 197 382 194 383 194 383 C 194 383 206 379 206 379 C 206 379 197 383 192 388 C 191 389 189 391 188 393 C 187 395 186 398 186 400 C 186 403 187 407 189 410 C 190 412 192 414 196 416 C 199 418 202 418 204 419 C 208 421 210 424 214 426 C 223 433 233 431 244 430 C 259 430 235 433 235 433 C 235 433 223 434 215 436 C 207 439 201 449 196 462 C 192 472 191 484 193 495 C 193 495 195 499 195 499 C 195 499 192 502 188 496 C 185 492 181 487 178 481 C 175 475 171 469 168 464 C 166 461 164 457 163 455 C 160 451 157 446 154 442 C 152 439 150 436 149 433 C 147 430 146 427 144 423 C 143 419 141 416 140 412 C 138 407 140 405 140 405 C 140 405 141 402 141 402 C 148 384 164 339 168 333 C 168 333 169 331 169 330 C 169 326 219 316 217 320 zM 171 331 C 176 331 180 330 185 329 C 190 328 197 326 200 325 C 205 324 210 323 215 322 C 215 322 171 331 171 331 z"/><path fill="black" stroke="black" d="M 325 541 C 281 541 238 542 194 542 C 194 542 325 541 325 541 zM 324 541 C 325 541 327 542 328 542 C 328 542 357 462 357 462 C 357 462 354 458 351 464 C 350 465 349 467 348 468 C 344 475 340 482 336 488 C 329 496 322 505 317 510 C 314 513 311 515 309 517 C 302 523 294 527 286 531 C 282 533 279 534 275 535 C 273 535 272 536 270 536 C 265 536 261 536 256 535 C 248 534 241 533 234 530 C 228 528 223 525 217 522 C 211 518 206 514 201 510 C 197 506 192 502 188 496 C 185 492 181 487 178 481 C 175 475 171 469 168 464 C 166 461 164 457 163 455 C 160 451 154 442 154 442 C 154 442 154 442 154 442 C 160 463 167 483 175 504 C 180 517 191 544 191 544 C 192 543 193 542 194 542 C 194 542 324 541 324 541 z"/><path fill="black" stroke="black" d="M 325 541 C 281 541 238 542 194 542 C 194 542 325 541 325 541 zM 328 542 C 327 542 326 541 325 541 C 325 541 196 542 196 542 L 194 542 L 192 542 C 192 542 191 544 191 544 C 204 574 218 604 234 634 C 234 634 231 636 235 634 C 243 631 253 630 261 630 C 272 631 280 633 280 633 L 281 633 C 281 633 283 633 283 633 C 302 592 309 580 312 575 C 313 574 314 572 315 570 C 321 561 325 552 328 542 C 328 542 328 542 328 542 z"/><path fill="black" stroke="black" d="M 235 634 C 230 636 226 639 221 640 C 214 643 198 653 189 641 C 189 640 186 638 186 638 C 174 620 161 603 147 586 C 140 577 133 569 125 560 C 125 560 123 559 123 559 L 126 549 L 128 537 L 129 523 L 130 483 L 129 453 L 129 382 C 129 382 122 357 125 366 C 126 369 127 372 128 375 C 128 377 129 380 130 382 C 129 380 132 388 134 394 C 135 397 138 407 140 412 C 141 416 143 419 144 423 C 146 427 147 430 149 433 C 150 436 152 439 154 442 C 157 446 243 631 235 634 zM 154 442 C 160 463 167 483 175 504 C 180 517 185 530 191 544 C 204 574 218 604 234 634 C 234 634 154 442 154 442 z"/><path fill="black" stroke="black" d="M 402 361 C 399 370 396 380 392 390 C 391 391 391 393 390 394 C 387 401 384 407 381 412 C 380 414 379 416 378 418 C 376 421 375 424 373 427 C 370 432 365 441 361 448 C 358 453 357 462 357 462 C 357 462 351 488 328 542 C 305 596 325 543 283 633 C 283 633 272 632 278 634 C 283 635 287 637 292 639 C 307 643 318 643 326 641 C 326 641 327 641 327 641 C 331 640 318 642 318 642 L 321 640 L 394 551 C 394 551 394 544 394 539 C 393 528 393 514 393 508 C 393 499 392 489 392 479 C 392 464 392 447 392 437 C 392 428 394 421 393 413 C 393 409 392 402 393 395 C 393 393 394 390 394 388 C 394 388 406 351 402 361 z"/><path fill="black" stroke="black" d="M 186 638 C 174 620 161 603 147 586 C 140 577 133 569 125 560 C 125 560 126 549 126 549 L 123 559 L 118 566 L 109 572 L 100 580 L 86 588 L 70 595 L 53 606 L 39 614 C 39 614 10 628 10 628 C 18 627 25 626 33 625 C 43 624 56 622 63 621 C 76 620 90 619 99 619 C 127 619 153 625 162 630 C 167 633 178 639 189 641 C 203 644 186 638 186 638 z"/><path fill="black" stroke="black" d="M 388 624 C 371 623 357 626 345 632 C 339 635 334 639 326 641 C 318 643 321 640 321 640 L 394 551 C 394 551 395 555 402 566 C 408 575 416 580 420 582 C 432 589 447 597 453 599 C 464 603 479 612 493 619 C 502 623 514 629 513 631 C 513 632 490 625 470 622 C 461 621 447 620 434 620 C 426 619 417 619 409 619 C 409 619 388 624 388 624 z"/></svg>