<svg xmlns="http://www.w3.org/2000/svg" width="490" height="490" viewBox="-60 -9 490 513"><path fill="black" stroke="black" d="M 31 175 L 31 175 zM 245 8 C 167 2 123 27 93 73 C 83 88 66 100 68 125 C 72 124 71 125 71 125 L 82 120 L 92 120 L 104 119 L 120 125 L 134 134 L 139 144 L 165 130 L 188 105 L 206 87 L 216 74 L 229 51 L 234 40 L 240 31 C 240 31 244 12 245 8 z"/><path fill="black" stroke="black" d="M 73 126 C 66 131 65 142 67 153 C 68 154 68 155 69 157 C 71 159 72 160 73 162 C 75 163 77 165 78 166 C 88 173 104 173 116 173 C 118 173 122 173 125 172 C 130 170 134 166 137 161 C 139 158 139 154 139 150 C 139 148 137 142 133 137 C 130 133 126 130 123 127 C 115 123 105 122 91 122 C 89 122 83 123 78 124 C 76 125 75 125 73 126 z"/><path fill="black" stroke="black" d="M 250 2 C 260 -9 301 11 326 27 C 358 48 377 74 392 97 C 412 131 430 176 411 226 C 407 230 402 234 397 238 C 386 246 375 250 359 256 C 348 260 340 263 330 264 C 314 264 293 258 291 248 C 290 241 298 236 300 226 C 300 223 301 219 300 215 C 300 209 299 204 298 200 C 291 183 269 174 252 172 C 244 172 237 174 227 176 C 212 179 198 180 189 179 C 179 178 169 174 160 171 C 150 169 142 167 138 160 C 136 155 137 149 140 144 C 143 138 150 136 152 136 C 157 134 167 126 177 119 C 185 113 193 105 201 96 C 208 87 216 77 223 65 C 228 57 233 45 238 34 C 242 25 247 14 247 10 C 248 6 248 4 250 2 z"/><path fill="black" stroke="black" d="M -60 224 L -60 224 zM 96 184 L 96 184 zM 88 175 C 85 177 83 180 81 183 C 80 186 78 188 77 191 C 76 196 76 200 76 206 C 76 211 76 215 75 219 C 74 221 71 226 68 230 C 65 233 62 236 58 238 C 56 239 54 240 52 241 C 52 241 44 241 44 241 C 42 241 40 241 38 242 C 38 242 32 236 29 233 C 26 229 24 228 21 225 C 16 221 14 221 14 221 C 12 220 8 214 7 209 C 3 196 38 177 46 171 C 51 164 57 158 62 152 C 62 151 62 151 63 150 C 64 151 64 152 65 153 C 66 153 67 155 67 155 C 67 155 68 155 69 157 C 71 159 72 160 73 162 C 75 163 77 165 78 166 C 88 173 88 172 88 173 C 88 173 88 175 88 175 z"/><path fill="black" stroke="black" d="M -60 224 L -60 224 zM 96 184 L 96 184 zM 88 173 C 90 173 92 173 94 173 C 97 174 100 176 101 177 C 104 181 108 182 111 186 C 115 190 116 194 118 199 C 120 206 123 210 125 217 C 126 222 126 225 128 230 C 131 239 135 244 133 246 C 132 247 130 246 129 246 C 124 244 121 245 115 244 C 112 243 106 243 101 242 C 95 241 87 241 82 241 C 77 240 72 240 67 239 C 67 239 52 241 52 241 C 54 240 56 239 58 238 C 62 236 65 233 68 230 C 71 226 74 221 75 219 C 76 215 76 211 76 206 C 76 200 76 196 77 191 C 78 188 80 186 81 183 C 83 180 85 177 88 175 C 88 175 88 173 88 173 z"/><path fill="black" stroke="black" d="M -60 224 L -60 224 zM 111 186 C 115 190 116 194 118 199 C 120 206 123 210 125 217 C 126 222 126 225 128 230 C 131 239 135 244 133 246 C 136 246 139 247 142 247 C 149 248 156 248 164 249 C 168 250 172 251 176 251 C 182 252 198 251 201 253 C 201 253 201 253 202 253 C 203 253 201 246 201 245 C 201 241 201 238 202 236 C 202 236 202 235 202 233 C 202 232 200 231 199 230 C 196 229 187 224 185 224 C 183 223 171 217 163 213 C 157 210 150 206 144 203 C 137 199 131 196 125 192 C 121 190 118 188 115 186 C 115 186 111 186 111 186 z"/><path fill="black" stroke="black" d="M -60 224 L -60 224 zM 138 160 C 142 167 150 169 160 171 C 169 174 179 178 189 179 C 198 180 212 179 227 176 C 237 174 244 172 252 172 C 269 174 291 183 298 200 C 299 204 300 209 300 215 C 301 219 300 224 300 226 C 298 232 291 237 291 245 C 291 246 291 247 291 248 C 291 248 276 245 276 245 C 280 236 281 227 279 218 C 278 211 276 206 273 202 C 270 197 266 193 263 192 C 260 190 256 188 253 188 C 250 188 247 188 243 189 C 240 189 236 190 233 192 C 227 195 222 199 217 203 C 214 207 212 211 209 215 C 207 218 206 219 205 222 C 204 225 202 236 202 236 C 202 236 202 235 202 233 C 202 232 200 231 199 230 C 196 229 187 224 185 224 C 183 223 171 217 163 213 C 157 210 150 206 144 203 C 137 199 131 196 125 192 C 121 190 118 188 115 186 C 112 184 110 183 108 181 C 106 180 105 179 103 178 C 100 176 98 176 98 175 C 98 174 102 173 106 174 C 107 174 108 175 109 176 C 109 176 121 173 121 173 C 123 173 124 172 125 172 C 130 169 134 166 137 161 C 137 161 138 160 138 160 zM 88 175 L 88 175 z"/><path fill="black" stroke="black" d="M -60 224 L -60 224 zM 211 273 C 213 275 214 277 216 278 C 220 283 228 284 238 282 C 244 281 248 280 251 278 C 256 275 259 270 261 268 C 263 265 265 262 267 259 C 270 256 272 253 274 249 C 274 249 276 245 276 245 C 280 236 281 227 279 218 C 278 211 276 206 273 202 C 270 197 266 193 263 192 C 260 190 256 188 253 188 C 250 188 247 188 243 189 C 240 189 236 190 233 192 C 227 195 222 199 217 203 C 214 207 212 211 209 215 C 207 218 206 219 205 222 C 204 224 204 226 203 228 C 203 231 202 234 202 237 C 201 240 201 243 201 245 C 200 248 201 251 201 254 C 201 257 202 260 203 262 C 204 265 206 268 207 269 C 208 271 210 272 211 273 z"/><path fill="black" stroke="black" d="M -60 224 L -60 224 zM 276 245 C 276 245 274 249 274 249 C 272 253 270 256 267 259 C 265 262 263 265 261 268 C 259 270 256 275 251 278 C 248 279 245 281 242 281 C 241 282 240 282 238 282 C 238 282 240 285 242 286 C 245 287 247 290 247 290 L 252 292 L 259 298 L 270 306 L 277 310 C 277 310 281 314 281 313 C 282 313 288 308 288 308 L 294 299 L 303 291 L 313 281 L 322 276 L 332 268 C 332 268 332 264 332 264 C 318 259 305 253 291 248 C 304 253 318 258 331 263 C 331 263 276 245 276 245 zM 291 245 C 291 246 291 247 291 248 C 291 248 276 245 276 245 C 276 245 291 245 291 245 z"/><path fill="black" stroke="black" d="M -60 224 L -60 224 zM 331 263 L 331 263 zM 332 264 L 332 268 L 322 276 L 313 281 L 303 291 L 294 299 L 288 308 C 288 308 282 313 281 313 C 281 313 287 319 287 319 L 309 334 L 315 339 C 315 339 322 341 322 341 C 325 338 328 334 331 330 C 334 326 337 323 340 319 C 344 316 349 311 353 307 C 357 302 362 297 366 293 C 370 288 376 280 382 273 C 389 264 395 257 399 247 C 401 243 402 239 403 234 C 403 234 397 238 397 238 C 386 246 375 250 359 256 C 348 260 340 263 330 264 C 330 264 332 264 332 264 z"/><path fill="black" stroke="black" d="M -60 224 L -60 224 zM 60 242 C 63 244 65 247 67 251 C 68 252 69 255 70 257 C 71 260 73 264 73 266 C 74 270 74 273 74 276 C 73 281 71 286 70 288 C 69 289 66 291 63 293 C 61 295 59 296 56 297 C 53 298 49 298 45 299 C 42 299 39 299 37 299 C 35 300 33 300 31 299 C 31 299 28 295 28 295 C 27 294 26 293 25 291 C 25 289 25 287 28 283 C 29 281 32 278 34 276 C 34 276 35 275 35 274 C 34 273 33 272 32 271 C 31 271 30 269 29 265 C 28 262 29 259 30 256 C 30 254 31 250 32 247 C 32 245 32 243 32 241 C 32 241 38 242 38 242 C 40 241 42 241 44 241 C 44 241 52 241 52 241 C 54 240 56 239 58 238 C 58 238 60 242 60 242 z"/><path fill="black" stroke="black" d="M -60 224 L -60 224 zM 37 299 C 39 299 42 299 45 299 C 49 298 53 298 56 297 C 59 296 61 295 63 293 C 66 291 69 289 70 288 C 71 286 73 281 74 276 C 74 273 74 270 73 266 C 73 264 71 260 70 257 C 69 255 68 252 67 251 C 65 247 63 244 60 242 C 60 242 59 238 59 238 C 59 238 67 239 67 239 C 72 240 77 240 82 241 C 87 241 95 241 101 242 C 106 243 112 243 115 244 C 121 245 124 244 129 246 C 130 246 132 247 133 246 C 133 246 134 250 134 250 C 135 254 135 257 136 261 C 137 269 136 276 136 284 C 136 289 136 295 136 300 C 136 306 135 310 134 316 C 134 317 134 321 134 323 C 133 325 133 327 132 328 C 131 331 130 332 129 335 C 128 339 130 342 128 345 C 125 349 118 347 110 348 C 104 348 98 349 92 351 C 89 353 86 354 82 355 C 81 355 79 355 77 356 C 75 356 72 357 69 358 C 68 359 66 359 64 360 C 61 361 59 361 59 360 C 58 359 64 354 67 348 C 67 346 68 340 68 335 C 67 330 66 324 65 321 C 63 318 62 315 60 313 C 57 310 54 309 51 307 C 48 306 45 304 43 302 C 43 302 37 299 37 299 z"/><path fill="black" stroke="black" d="M -60 224 L -60 224 zM 129 246 C 130 246 132 247 133 246 C 133 246 134 250 134 250 C 135 254 135 257 136 261 C 137 269 136 276 136 284 C 136 289 136 295 136 300 C 136 306 135 310 134 316 C 134 317 134 321 134 323 C 133 325 133 327 132 328 C 131 331 130 332 129 335 C 128 339 130 342 128 345 C 125 349 133 345 133 345 L 139 343 L 170 339 L 193 337 L 196 333 L 210 314 L 222 299 C 222 299 244 281 238 282 C 228 284 220 283 216 278 C 214 277 213 275 211 273 C 210 272 208 271 207 269 C 206 268 204 265 203 262 C 202 260 201 257 201 254 C 201 251 124 244 129 246 zM 133 246 C 136 246 139 247 142 247 C 149 248 156 248 164 249 C 168 250 172 251 176 251 C 182 252 198 251 201 253 C 201 253 201 253 202 253 C 203 253 201 246 201 245 C 201 241 135 244 133 246 z"/><path fill="black" stroke="black" d="M -60 224 L -60 224 zM 53 361 C 51 361 49 361 47 360 C 45 359 44 358 42 356 C 39 354 36 354 33 352 C 31 350 29 349 28 347 C 26 345 24 342 23 338 C 22 336 21 332 21 327 C 21 323 22 318 24 312 C 25 308 27 304 30 300 C 30 300 37 299 37 299 C 37 299 43 302 43 302 C 45 304 48 306 51 307 C 54 309 57 310 60 313 C 62 315 63 318 65 321 C 66 324 67 330 68 335 C 68 340 67 346 67 348 C 64 354 58 359 59 360 C 59 360 53 361 53 361 z"/><path fill="black" stroke="black" d="M -60 224 L -60 224 zM 128 345 C 125 349 118 347 110 348 C 104 348 98 349 92 351 C 89 353 86 354 82 355 C 81 355 79 355 77 356 C 75 356 72 357 69 358 C 68 359 66 359 64 360 C 61 361 59 361 59 360 C 59 360 59 365 59 365 C 61 367 63 369 65 370 C 67 373 69 375 71 377 C 73 380 74 382 76 385 C 78 390 81 393 83 397 C 85 402 87 407 89 413 C 89 413 94 413 94 413 C 96 414 98 414 101 414 C 103 414 105 415 106 415 C 112 416 117 417 122 418 C 130 420 137 423 145 426 C 145 426 146 420 146 420 C 147 418 148 416 148 414 C 149 412 150 410 151 407 C 152 407 154 405 154 403 C 155 401 154 399 155 398 C 156 395 157 394 158 393 C 160 391 161 389 162 386 C 163 385 166 381 167 379 C 170 375 172 372 174 369 C 180 361 187 349 193 339 C 193 339 193 337 193 337 L 170 339 L 139 343 L 133 345 C 133 345 125 349 128 345 C 128 345 128 345 128 345 z"/><path fill="black" stroke="black" d="M -60 224 L -60 224 zM 121 482 L 121 482 zM 145 426 C 145 426 146 420 146 420 C 147 418 148 416 148 414 C 149 412 150 410 151 407 C 152 407 154 405 154 403 C 155 401 154 399 155 398 C 156 395 157 394 158 393 C 160 391 161 389 162 386 C 163 385 166 381 167 379 C 170 375 172 372 174 369 C 180 361 187 349 193 339 C 193 339 193 337 193 337 L 145 426 zM 197 333 C 198 330 199 328 201 325 C 203 322 205 320 207 318 C 211 314 213 311 216 306 C 221 298 229 289 237 281 C 237 281 242 283 242 283 C 254 292 267 302 280 311 C 280 311 278 315 278 315 C 276 317 274 319 272 321 C 269 324 267 327 264 331 C 261 335 257 340 254 344 C 248 352 242 360 237 367 C 231 377 224 387 219 395 C 213 406 208 416 203 426 C 200 434 196 444 192 454 C 188 465 185 476 181 486 C 181 486 175 485 175 485 C 172 485 169 485 166 485 C 161 485 153 486 146 486 C 142 486 136 485 130 483 C 129 483 128 483 126 483 C 126 483 124 478 124 478 C 124 475 125 471 126 467 C 127 463 128 459 129 456 C 131 452 133 449 135 445 C 138 439 141 434 143 428 C 143 428 197 333 197 333 z"/><path fill="black" stroke="black" d="M 332 502 C 331 503 331 503 331 504 C 330 504 330 504 330 504 C 330 504 332 502 332 502 zM -60 224 L -60 224 zM 281 313 L 280 311 C 280 311 278 315 278 315 C 276 317 274 319 272 321 C 269 324 267 327 264 331 C 261 335 257 340 254 344 C 248 352 242 360 237 367 C 231 377 224 387 219 395 C 213 406 208 416 203 426 C 200 434 196 444 192 454 C 188 465 185 476 181 486 C 181 486 189 484 189 484 C 197 483 205 482 214 481 C 223 480 233 480 241 480 C 249 480 258 480 266 481 C 274 481 280 481 288 483 C 292 484 297 486 302 488 C 308 490 314 493 320 496 C 320 496 327 498 327 498 C 325 494 322 490 319 487 C 318 485 316 483 314 481 C 310 475 307 471 303 465 C 299 458 295 453 291 447 C 287 439 283 430 280 420 C 277 411 275 403 274 396 C 273 389 272 379 273 368 C 273 351 275 340 280 330 C 282 326 285 323 288 319 C 288 319 287 319 287 319 C 287 319 281 313 281 313 C 282 313 281 313 281 313 z"/><path fill="black" stroke="black" d="M -60 224 L -60 224 zM 287 319 L 309 334 L 315 339 L 322 341 C 322 341 321 346 321 346 C 320 348 319 349 318 351 C 317 352 316 354 316 356 C 314 359 314 362 314 366 C 313 370 312 374 312 378 C 312 381 312 385 313 389 C 314 393 314 396 315 400 C 317 405 319 408 321 413 C 323 418 326 424 328 427 C 331 433 336 440 342 446 C 347 451 352 456 356 460 C 361 465 366 469 371 473 C 371 473 368 476 368 476 C 357 484 346 493 335 502 C 335 502 332 502 332 502 C 331 503 331 503 331 504 C 330 504 330 504 330 504 C 330 504 327 498 327 498 C 325 494 322 490 319 487 C 318 485 316 483 314 481 C 310 475 307 471 303 465 C 299 458 295 453 291 447 C 287 439 283 430 280 420 C 277 411 275 403 274 396 C 273 389 272 379 273 368 C 273 351 275 340 280 330 C 282 326 285 323 288 319 C 288 319 287 319 287 319 L 287 319 zM 288 320 L 288 320 zM 289 320 L 288 319 L 289 320 z"/><path fill="black" stroke="black" d="M -60 224 L -60 224 zM 121 482 C 118 480 115 478 112 477 C 111 476 109 476 107 475 C 107 475 104 475 104 475 C 104 465 102 456 100 446 C 99 441 98 438 97 433 C 96 430 95 427 94 424 C 93 422 92 420 92 417 C 92 417 89 413 89 413 C 89 413 94 413 94 413 C 96 414 98 414 101 414 C 103 414 105 415 106 415 C 112 416 117 417 122 418 C 130 420 137 423 145 426 C 145 426 143 428 143 428 C 141 434 138 439 135 445 C 133 449 131 452 129 456 C 128 459 127 463 126 467 C 125 471 124 475 124 478 C 124 478 121 482 121 482 z"/></svg>