<svg xmlns="http://www.w3.org/2000/svg" width="582" height="582" viewBox="3 3 582 623"><path fill="black" stroke="black" d="M 95 243 L 111 211 L 122 194 L 137 178 L 160 160 L 185 146 L 211 138 L 238 134 L 248 132 L 249 4 L 226 4 L 198 6 L 168 15 L 138 29 L 116 44 L 96 62 L 76 86 L 59 110 L 52 132 L 43 153 L 56 164 L 69 174 L 76 185 L 82 198 L 89 211 L 91 223 L 95 243 z"/><path fill="black" stroke="black" d="M 250 132 L 251 4 L 272 3 L 288 4 L 319 12 L 340 20 L 369 34 L 396 53 L 416 76 L 439 110 L 450 136 L 455 156 L 442 165 L 433 176 L 424 186 L 418 199 L 414 211 L 408 225 L 408 237 L 405 242 L 399 230 L 395 219 L 388 207 L 379 196 L 372 187 L 361 177 L 350 167 L 340 160 L 328 154 L 317 147 L 304 143 L 278 136 L 263 134 L 250 132 z"/><path fill="black" stroke="black" d="M 44 291 L 57 288 L 70 285 L 82 283 L 87 268 L 89 258 L 93 243 L 92 226 L 88 212 L 81 198 L 76 185 L 70 177 L 59 166 L 47 157 L 41 178 L 38 200 L 38 218 L 37 241 L 40 269 L 44 291 z"/><path fill="black" stroke="black" d="M 418 283 L 431 285 L 442 287 L 457 290 L 462 267 L 463 244 L 465 215 L 463 192 L 456 174 L 455 158 L 442 165 L 430 177 L 424 187 L 416 199 L 412 212 L 410 225 L 406 243 L 411 257 L 415 271 L 418 283 z"/><path fill="black" stroke="black" d="M 221 467 L 193 469 L 164 472 L 124 477 L 108 480 L 100 445 L 91 416 L 87 405 L 84 389 L 81 376 L 79 350 L 78 324 L 83 297 L 85 269 L 95 244 L 107 218 L 122 196 L 138 175 L 160 159 L 184 146 L 211 140 L 237 132 L 251 131 L 277 134 L 304 142 L 328 153 L 351 167 L 371 185 L 388 207 L 401 231 L 409 255 L 417 282 L 420 311 L 419 337 L 418 365 L 416 391 L 411 405 L 404 428 L 397 456 L 391 478 L 361 475 L 322 472 L 293 469 L 265 467 L 247 466 L 221 467 z"/><path fill="black" stroke="black" d="M 43 291 C 43 291 69 411 71 412 C 73 413 97 481 97 481 L 110 480 C 110 480 94 432 89 412 C 73 345 81 282 81 282 C 81 282 47 290 43 291 z"/><path fill="black" stroke="black" d="M 417 282 C 417 282 430 339 411 409 C 392 479 393 479 393 479 L 405 481 C 405 481 427 426 429 415 C 431 404 458 291 458 291 C 458 291 436 284 417 282 z"/><path fill="black" stroke="black" d="M 95 481 L 127 477 L 155 474 L 180 470 L 208 468 L 236 467 L 257 467 L 285 468 L 333 472 L 390 479 L 405 482 L 401 498 L 400 513 L 399 527 L 400 552 L 402 573 L 413 595 L 421 611 L 433 624 L 69 626 L 77 613 L 89 596 L 96 573 L 101 554 L 101 532 L 102 511 L 95 481 z"/><path fill="black" stroke="black" d="M 70 412 L 55 346 L 43 293 L 36 245 L 30 237 L 23 231 L 14 230 L 6 235 L 4 253 L 7 267 L 3 286 L 3 300 L 4 317 L 11 342 L 23 365 L 36 379 L 43 387 L 50 403 L 59 411 L 64 416 L 70 412 z"/><path fill="black" stroke="black" d="M 429 411 L 440 376 L 444 345 L 452 316 L 455 290 L 465 245 L 473 233 L 484 230 L 489 233 L 496 242 L 496 255 L 495 272 L 496 291 L 499 306 L 497 318 L 494 330 L 485 350 L 479 364 L 457 386 L 451 401 L 444 412 L 435 414 L 429 411 zM 585 447 L 585 447 z"/></svg>