<svg xmlns="http://www.w3.org/2000/svg" width="174" height="174" viewBox="64 2 174 503"><path fill="black" stroke="black" d="M 104 30 C 102 28 99 27 96 26 C 96 26 95 24 95 24 C 95 22 96 21 96 19 C 97 18 98 16 99 15 C 100 14 100 13 101 12 C 103 10 105 8 106 7 C 109 5 111 5 115 4 C 117 3 118 3 120 2 C 120 2 121 3 121 3 C 121 8 121 14 121 19 C 121 19 120 22 120 22 C 117 22 115 23 112 24 C 111 25 110 26 108 27 C 107 28 107 29 106 30 C 106 30 104 30 104 30 zM 64 34 L 64 34 z"/><path fill="black" stroke="black" d="M 120 22 C 120 22 121 19 121 19 C 121 14 121 8 121 3 C 121 3 121 2 121 2 C 122 2 123 2 123 3 C 125 3 127 3 128 4 C 130 5 131 5 133 6 C 135 7 136 8 137 9 C 139 11 139 13 141 14 C 142 16 143 16 144 18 C 144 19 144 20 144 21 C 144 21 144 24 144 24 C 142 26 140 28 138 30 C 138 30 136 31 136 31 C 136 30 135 29 134 28 C 133 28 132 27 132 27 C 130 26 130 25 128 24 C 127 22 124 22 121 22 C 121 22 117 22 120 22 zM 64 34 L 64 34 z"/><path fill="black" stroke="black" d="M 120 22 L 120 22 zM 64 34 L 64 34 zM 120 22 C 117 22 115 23 112 24 C 111 25 110 26 108 27 C 107 28 107 29 106 30 C 106 30 120 22 120 22 zM 105 31 C 104 33 103 34 103 35 C 102 37 101 39 101 40 C 100 43 99 45 98 47 C 98 47 105 31 105 31 zM 137 33 C 138 34 138 35 139 36 C 139 37 139 38 140 38 C 140 40 140 41 141 42 C 141 44 142 46 142 48 C 142 48 139 57 140 56 C 141 55 101 56 101 56 C 101 55 101 54 100 53 C 100 51 99 50 99 49 C 99 49 137 33 137 33 z"/><path fill="black" stroke="black" d="M 97 46 C 97 45 97 44 97 42 C 96 41 95 39 95 36 C 95 35 95 33 95 31 C 95 31 95 30 95 30 C 95 29 95 28 95 27 C 95 27 95 26 95 25 C 95 25 104 30 104 30 C 104 30 105 31 105 31 C 104 33 103 34 103 35 C 102 37 101 39 101 40 C 100 43 99 45 98 47 C 98 47 97 46 97 46 z"/><path fill="black" stroke="black" d="M 137 33 C 138 34 138 35 139 36 C 139 37 139 38 140 38 C 140 40 140 41 141 42 C 141 44 142 46 142 48 C 142 48 143 48 143 48 C 144 46 145 43 145 41 C 145 40 145 38 146 37 C 146 35 146 34 146 32 C 146 31 146 30 146 29 C 146 28 146 27 146 27 C 146 25 146 24 145 23 C 145 23 136 31 136 31 C 136 31 137 33 137 33 z"/><path fill="black" stroke="black" d="M 139 57 C 138 59 138 61 137 62 C 137 64 137 66 137 68 C 137 70 137 71 137 73 C 137 73 137 74 137 75 C 137 76 138 77 138 78 C 138 78 137 79 137 79 C 126 79 115 79 104 79 C 104 79 102 79 102 79 C 103 76 103 73 103 70 C 103 68 103 65 103 63 C 102 61 102 60 102 58 C 102 58 101 55 101 56 C 101 56 141 55 140 56 C 139 57 139 57 139 57 z"/><path fill="black" stroke="black" d="M 101 80 C 101 80 100 81 100 82 C 99 82 98 83 97 84 C 96 85 101 80 101 80 zM 96 87 C 98 88 100 89 102 90 C 105 92 108 95 110 96 C 113 99 114 104 115 108 C 115 113 115 103 115 103 C 115 96 115 88 115 81 C 115 81 115 78 115 78 C 115 78 102 79 102 79 C 103 76 96 87 96 87 z"/><path fill="black" stroke="black" d="M 138 78 C 138 77 138 78 138 78 zM 144 85 C 144 84 143 83 142 82 C 141 82 140 81 140 81 C 140 81 139 79 139 79 L 125 79 C 125 79 125 81 125 81 C 125 88 125 95 125 102 C 125 102 125 104 128 100 C 129 99 132 95 136 92 C 139 90 141 89 144 87 C 144 87 146 87 144 85 z"/><path fill="black" stroke="black" d="M 69 98 C 70 97 71 97 72 97 C 74 96 76 95 78 94 C 80 93 83 93 85 91 C 88 90 90 88 93 87 C 94 86 96 87 96 87 C 98 88 100 89 102 90 C 105 92 108 95 110 96 C 113 99 114 104 115 108 C 115 113 114 117 113 121 C 111 125 108 127 105 129 C 101 131 98 131 96 131 C 96 131 95 131 95 130 C 93 130 86 126 81 119 C 77 114 74 110 71 103 C 71 102 70 100 69 99 C 69 99 67 98 69 98 z"/><path fill="black" stroke="black" d="M 169 96 C 167 96 163 94 160 93 C 157 91 154 90 151 88 C 148 87 144 87 144 87 C 141 89 139 90 136 92 C 132 95 129 99 128 100 C 125 104 125 109 125 114 C 126 119 128 123 130 124 C 132 127 136 129 141 130 C 144 130 148 130 153 126 C 153 126 153 126 153 126 C 155 125 158 122 160 119 C 161 117 162 115 164 113 C 165 110 166 107 167 105 C 167 104 168 103 168 102 C 168 101 168 99 169 98 C 169 98 170 96 169 96 z"/><path fill="black" stroke="black" d="M 114 164 C 102 170 91 176 80 183 C 80 183 79 186 79 180 C 79 174 80 169 81 163 C 81 159 81 148 81 146 C 81 142 82 126 82 126 L 87 126 L 94 130 L 101 130 L 107 127 L 115 117 C 115 117 115 109 115 117 C 115 117 114 164 114 164 zM 125 105 C 125 103 125 102 125 102 C 125 95 125 124 125 105 z"/><path fill="black" stroke="black" d="M 125 114 C 126 119 128 123 130 124 C 132 127 136 129 141 130 C 144 130 153 126 153 126 L 153 126 L 159 126 L 159 133 L 160 158 L 161 173 L 162 183 C 162 183 137 170 125 163 C 125 163 125 109 125 114 zM 125 105 C 125 103 125 102 125 102 C 125 95 125 124 125 105 z"/><path fill="black" stroke="black" d="M 163 221 C 162 213 161 205 161 200 C 161 192 162 185 162 177 C 162 170 164 228 163 221 zM 108 224 C 99 221 89 218 80 216 C 80 216 79 215 79 212 C 79 208 79 209 79 207 C 79 204 79 200 79 196 C 79 196 79 183 79 183 L 115 163 L 115 215 C 115 215 113 216 112 216 C 110 218 110 220 109 222 C 109 223 108 224 108 224 z"/><path fill="black" stroke="black" d="M 160 183 C 148 176 125 164 125 164 C 125 164 126 215 126 215 C 128 217 131 223 131 223 C 131 223 133 223 133 223 C 142 221 162 215 162 215 C 162 215 161 205 161 200 C 161 192 161 184 161 184 C 161 184 160 183 160 183 z"/><path fill="black" stroke="black" d="M 79 219 C 79 222 78 226 78 229 C 77 234 76 239 75 242 C 74 243 73 244 72 248 C 71 250 75 244 75 244 C 77 241 80 239 83 237 C 85 237 87 236 90 236 C 92 236 94 236 95 236 C 98 236 101 237 102 237 C 103 238 104 238 105 239 C 105 239 107 239 107 239 C 107 236 107 234 107 232 C 107 231 107 228 107 226 C 108 225 109 223 109 222 C 110 220 108 224 108 224 C 99 221 89 218 80 216 C 80 216 79 215 79 219 z"/><path fill="black" stroke="black" d="M 167 241 C 166 235 163 225 163 225 L 162 216 C 162 216 142 221 133 223 C 133 223 131 223 131 223 C 131 223 133 228 133 231 C 134 233 134 235 134 237 C 134 237 136 238 136 238 C 136 238 137 238 137 237 C 138 237 139 237 141 236 C 142 236 143 235 145 235 C 147 235 149 235 151 236 C 154 237 157 238 158 239 C 161 240 163 241 164 243 C 165 244 168 246 168 246 C 168 246 169 249 167 241 z"/><path fill="black" stroke="black" d="M 125 114 C 125 109 125 104 128 100 C 129 99 126 119 125 114 zM 114 164 C 114 164 102 170 114 164 zM 125 163 C 125 163 137 170 125 163 zM 125 214 C 125 214 125 100 125 100 C 125 93 125 86 125 79 C 125 79 115 79 115 79 C 115 87 115 94 115 102 C 115 102 115 214 115 214 L 125 214 z"/><path fill="black" stroke="black" d="M 108 224 C 108 224 99 221 108 224 zM 134 237 C 134 235 134 233 133 231 C 133 228 131 223 131 223 C 131 223 128 217 126 215 C 126 215 115 215 115 215 C 114 215 111 218 111 218 C 111 218 110 220 109 222 C 109 223 107 227 107 227 L 106 231 L 106 238 C 106 238 107 241 107 241 C 109 241 111 243 113 244 C 115 246 116 247 117 248 C 118 249 118 250 119 251 C 119 251 121 251 121 251 C 121 250 122 249 123 248 C 125 245 127 244 130 242 C 132 241 133 241 134 240 C 134 240 134 237 134 237 z"/><path fill="black" stroke="black" d="M 119 251 C 118 250 118 249 117 248 C 116 247 115 246 113 244 C 111 243 109 241 107 241 C 107 241 105 239 105 239 C 104 238 103 238 102 237 C 101 237 98 236 95 236 C 94 236 92 236 90 236 C 87 236 85 237 83 237 C 80 239 77 241 75 244 C 75 244 73 246 73 246 C 73 247 72 248 72 250 C 71 251 71 253 70 255 C 70 257 69 260 69 263 C 69 264 69 266 69 268 C 69 268 71 270 71 270 C 71 271 72 272 73 274 C 73 274 74 275 75 276 C 76 278 78 278 80 279 C 81 280 81 281 82 282 C 83 283 85 284 87 285 C 90 286 94 286 98 286 C 101 286 104 285 105 285 C 109 283 111 281 113 279 C 115 277 117 275 118 274 C 118 274 119 270 119 270 L 120 252 C 120 252 119 251 119 251 z"/><path fill="black" stroke="black" d="M 136 238 C 136 238 137 238 137 237 C 138 237 139 237 141 236 C 142 236 143 235 145 235 C 147 235 149 235 151 236 C 154 237 157 238 158 239 C 161 240 163 241 164 243 C 165 244 166 245 166 246 C 166 246 169 248 169 248 L 169 252 L 170 257 L 171 263 L 171 267 C 171 267 169 270 168 272 C 165 277 162 279 159 281 C 155 284 152 285 148 286 C 143 286 139 286 137 285 C 135 285 133 283 131 282 C 128 281 126 279 124 277 C 122 275 121 274 120 273 C 120 273 119 270 119 270 L 120 252 C 120 252 121 251 121 251 C 121 250 122 249 123 248 C 125 245 127 244 130 242 C 132 241 133 241 134 240 C 134 240 136 238 136 238 z"/><path fill="black" stroke="black" d="M 120 296 L 119 299 C 119 299 118 304 118 304 C 114 307 110 309 105 310 C 101 311 98 311 94 311 C 91 311 88 310 86 309 C 84 309 81 307 78 306 C 76 305 74 303 72 302 C 72 302 71 301 71 301 C 71 301 70 294 70 291 C 69 288 69 283 69 279 C 69 276 70 272 69 268 C 69 265 71 270 71 270 C 71 271 72 272 73 274 C 73 274 74 275 75 276 C 76 278 78 278 80 279 C 81 280 81 281 82 282 C 83 283 85 284 87 285 C 90 286 94 286 98 286 C 101 286 104 285 105 285 C 109 283 111 281 113 279 C 115 277 119 273 119 273 L 120 296 z"/><path fill="black" stroke="black" d="M 225 256 C 227 259 230 264 233 269 C 235 273 237 281 238 289 C 238 290 238 292 238 292 C 237 293 237 292 236 292 C 235 290 231 285 230 286 C 230 286 230 287 231 288 C 231 289 231 290 231 291 C 232 292 232 293 232 295 C 232 296 233 298 233 299 C 234 300 235 301 235 303 C 234 303 234 304 234 304 C 233 305 232 305 231 305 C 230 304 230 304 230 304 C 229 303 228 303 228 303 C 228 303 228 304 228 305 C 229 308 229 309 229 310 C 228 310 228 310 227 310 C 224 308 223 306 223 306 C 223 306 223 308 223 308 C 222 308 221 307 220 307 C 218 305 217 303 216 303 C 216 303 217 306 216 307 C 216 308 214 307 213 306 C 211 305 211 303 211 303 C 210 299 208 297 207 294 C 205 289 205 285 204 281 C 203 275 201 271 199 266 C 198 259 223 254 225 256 zM 172 266 L 171 281 L 170 299 C 170 299 169 302 169 302 C 167 304 165 305 162 307 C 159 309 155 310 151 310 C 147 311 143 311 139 311 C 135 310 132 309 130 308 C 128 307 124 305 122 303 C 122 303 121 299 121 299 L 120 296 L 119 273 C 119 273 122 275 124 277 C 126 279 128 281 131 282 C 133 283 135 285 137 285 C 139 286 143 286 148 286 C 152 285 155 284 159 281 C 162 279 165 277 168 272 C 169 270 171 267 171 267 L 172 266 zM 187 306 L 187 306 z"/><path fill="black" stroke="black" d="M 118 304 C 114 307 110 309 105 310 C 101 311 98 311 94 311 C 91 311 88 310 86 309 C 84 309 81 307 78 306 C 76 305 74 303 72 302 C 72 302 71 303 71 304 C 71 309 71 314 72 319 C 73 324 73 322 75 327 C 76 330 76 328 76 328 C 78 329 80 330 82 331 C 86 332 89 333 92 333 C 96 333 100 333 103 333 C 108 332 112 331 116 329 C 116 329 118 326 118 326 C 118 326 118 318 118 311 C 119 307 118 304 118 304 z"/><path fill="black" stroke="black" d="M 166 328 C 166 328 166 329 167 325 C 169 317 170 311 170 302 C 171 296 169 302 169 302 C 167 304 165 305 162 307 C 159 309 155 310 151 310 C 147 311 143 311 139 311 C 135 310 132 309 130 308 C 128 307 126 306 124 304 C 124 304 121 299 122 302 C 122 307 123 313 123 316 C 122 321 122 328 122 328 C 122 328 125 328 125 328 C 127 330 129 331 131 331 C 135 333 138 332 142 332 C 146 332 150 332 154 332 C 158 331 161 330 165 328 C 165 328 166 328 166 328 z"/><path fill="black" stroke="black" d="M 83 352 C 85 353 86 354 88 355 C 90 355 93 356 96 356 C 99 357 102 357 106 356 C 109 356 113 354 117 353 C 117 353 120 354 120 348 C 120 341 118 336 118 329 C 117 325 116 329 116 329 C 112 331 108 332 103 333 C 100 333 96 333 92 333 C 89 333 86 332 82 331 C 80 330 78 329 76 328 C 76 328 74 329 76 334 C 77 337 79 343 81 348 C 82 352 83 355 84 360 C 85 362 83 352 83 352 z"/><path fill="black" stroke="black" d="M 157 353 C 154 354 152 355 149 355 C 146 356 143 356 140 356 C 136 356 133 356 130 355 C 128 354 125 353 123 352 C 123 352 123 353 122 349 C 122 345 121 349 121 345 C 121 340 122 328 122 328 L 125 329 C 125 329 129 331 131 331 C 135 333 138 332 142 332 C 146 332 150 332 154 332 C 158 331 161 330 165 328 C 165 328 164 334 163 336 C 161 341 158 352 158 352 C 158 352 157 353 157 353 z"/><path fill="black" stroke="black" d="M 86 386 C 86 386 87 387 87 387 C 89 386 91 386 92 385 C 95 385 97 385 100 384 C 101 384 103 384 105 384 C 108 385 111 385 114 386 C 114 386 116 385 116 385 L 117 364 L 118 353 C 118 353 117 353 117 353 C 113 354 106 356 106 356 C 106 356 99 357 96 356 C 93 356 90 355 88 355 C 86 354 85 353 83 352 C 83 352 83 355 84 360 C 85 362 85 366 85 370 C 86 374 86 380 86 383 C 86 387 86 387 86 387 L 86 386 z"/><path fill="black" stroke="black" d="M 125 387 C 125 387 124 378 123 372 C 123 367 122 352 122 352 L 125 353 C 125 353 128 354 130 355 C 133 356 136 356 140 356 C 143 356 146 356 149 355 C 152 355 154 354 157 353 C 157 353 157 353 157 353 L 154 369 C 154 369 154 379 155 384 C 155 388 154 388 154 388 C 154 388 150 386 149 386 C 146 384 144 384 141 384 C 138 384 135 384 133 384 C 131 385 129 385 127 386 C 127 386 125 387 125 387 z"/><path fill="black" stroke="black" d="M 85 417 C 87 418 89 419 91 420 C 93 420 95 420 98 420 C 102 420 105 419 106 418 C 109 417 111 416 113 413 C 113 413 115 412 115 412 C 115 412 115 405 115 402 C 115 398 115 388 115 388 C 115 388 114 386 114 386 C 111 385 108 385 105 384 C 103 384 101 384 100 384 C 97 385 95 385 92 385 C 91 386 89 386 87 387 C 87 387 85 392 84 394 C 84 397 84 399 84 402 C 83 408 83 415 83 415 C 83 415 85 417 85 417 z"/><path fill="black" stroke="black" d="M 156 412 L 156 394 L 155 389 C 155 389 153 388 153 388 C 152 387 150 386 149 386 C 146 384 144 384 141 384 C 138 384 135 384 133 384 C 131 385 129 385 127 386 C 127 386 125 387 125 387 C 125 387 125 401 125 407 C 125 411 125 410 125 410 C 125 410 126 413 126 413 C 128 415 131 417 133 418 C 136 419 138 419 140 420 C 143 420 146 420 148 420 C 151 419 156 416 156 416 L 156 412 z"/><path fill="black" stroke="black" d="M 89 440 C 87 434 86 429 85 422 C 84 415 85 417 85 417 C 87 418 89 419 91 420 C 93 420 95 420 98 420 C 102 420 105 419 106 418 C 109 417 112 415 112 415 L 114 413 L 114 430 L 113 440 C 113 440 111 441 110 442 C 109 442 106 443 104 443 C 102 443 101 443 99 443 C 98 443 97 443 96 443 C 95 443 94 443 93 443 C 93 443 92 442 91 442 C 91 442 89 440 89 440 z"/><path fill="black" stroke="black" d="M 151 442 C 151 442 154 431 155 427 C 157 422 156 417 156 417 C 156 417 151 419 148 420 C 146 420 143 420 140 420 C 138 419 136 419 133 418 C 131 417 125 412 125 412 C 125 412 125 416 125 420 C 125 424 126 428 126 432 C 127 436 128 440 128 440 C 129 442 132 442 134 443 C 137 444 140 444 142 443 C 145 443 147 443 150 443 C 150 443 151 442 151 442 z"/><path fill="black" stroke="black" d="M 109 466 C 107 467 105 467 103 467 C 101 467 99 466 97 466 C 97 466 96 464 96 464 C 96 464 95 457 94 456 C 93 450 91 444 89 440 C 89 440 91 440 91 440 C 91 441 92 442 93 442 C 94 443 95 443 96 443 C 99 444 102 444 104 443 C 107 443 110 442 112 440 C 112 440 111 455 111 455 C 111 458 110 460 110 465 C 110 465 109 466 109 466 z"/><path fill="black" stroke="black" d="M 150 443 C 150 443 145 443 142 443 C 140 444 137 444 134 443 C 132 442 129 440 129 440 C 129 440 129 447 129 447 C 129 449 129 451 130 452 C 130 452 130 466 130 466 C 134 466 140 466 144 466 C 144 466 145 467 145 467 C 145 463 146 454 146 454 L 149 443 L 150 443 z"/><path fill="black" stroke="black" d="M 96 466 C 98 466 101 467 103 467 C 105 467 111 465 111 465 C 111 465 111 464 111 469 C 111 475 111 479 111 479 C 111 479 111 486 111 486 C 109 485 106 485 104 486 C 100 487 98 489 97 490 C 96 492 95 493 95 495 C 95 495 95 498 95 498 L 86 498 C 86 498 88 495 88 495 C 88 494 88 492 87 491 C 87 489 85 488 83 488 C 83 488 81 488 85 486 C 88 483 91 481 93 479 C 94 476 95 473 96 468 C 96 463 96 466 96 466 z"/><path fill="black" stroke="black" d="M 129 478 C 129 478 129 466 129 466 C 133 466 140 466 144 466 C 144 466 144 466 144 466 C 144 466 144 473 146 476 C 148 480 151 482 153 484 C 156 485 158 487 160 488 C 161 489 158 489 158 489 C 156 488 153 489 152 490 C 152 491 151 492 151 494 C 151 494 151 495 151 495 C 151 495 153 497 153 497 C 153 497 149 497 147 498 C 143 498 142 498 142 498 C 142 498 142 495 142 494 C 142 491 141 489 141 489 C 140 488 139 486 136 486 C 134 485 129 485 129 485 L 129 478 z"/><path fill="black" stroke="black" d="M 142 498 C 142 498 142 495 142 494 C 142 491 141 489 141 489 C 140 488 139 486 136 486 C 134 485 129 485 129 485 C 129 485 129 487 129 487 C 129 487 129 488 129 489 C 129 490 129 492 129 494 C 129 495 129 496 130 497 C 131 498 133 498 135 498 C 137 498 139 498 140 498 C 140 498 142 498 142 498 zM 137 505 L 137 505 z"/><path fill="black" stroke="black" d="M 154 498 C 158 498 163 498 165 498 C 166 498 167 498 167 498 C 169 498 170 498 170 497 C 171 497 171 497 171 496 C 171 495 170 495 169 495 C 168 494 164 491 161 489 C 161 489 158 487 160 488 C 161 489 158 489 158 489 C 156 488 153 489 152 490 C 152 491 151 492 151 494 C 151 494 151 495 151 495 C 151 495 153 497 153 497 C 153 497 154 498 154 498 zM 157 498 L 166 498 L 157 498 z"/><path fill="black" stroke="black" d="M 95 498 C 95 498 95 495 95 495 C 95 493 96 492 97 490 C 98 489 100 487 104 486 C 106 485 109 485 111 486 C 111 486 111 487 111 487 C 111 487 112 493 111 495 C 111 496 111 496 111 497 C 110 498 110 498 110 498 C 109 499 108 499 108 498 C 106 498 101 498 96 498 C 96 498 95 498 95 498 z"/><path fill="black" stroke="black" d="M 82 489 C 78 491 72 495 71 495 C 70 495 70 496 70 496 C 70 497 70 497 70 498 C 71 499 73 498 73 498 C 76 498 80 498 84 498 C 84 498 86 498 86 498 C 86 498 88 495 88 495 C 88 494 88 492 87 491 C 87 489 85 488 83 488 C 83 488 82 489 82 489 z"/></svg>